# xmcd CD database file
# Copyright (C) 1993-1998 Ti Kan
#
# Track frame offsets:
#  150
#  14627
#  26877
#  40612
#  58285
#  67642
#  82150
#  99397
#  110630
#  128805
#
# Disc length: 1948 seconds
#
# Revision: 1
# Processed by: cddbd v1.4b41PL1 Copyright (c) Steve Scherf et al.
# Submitted via: CDWizzard Release:4.35
#
DISCID=85079a0a
DTITLE=Cobin-Hanner Band - Live
DYEAR=1900
DGENRE=
TTITLE0=Oklahoma Crude
TTITLE1=Long Gone Blues
TTITLE2=Lord, I Hope This Day Is Good
TTITLE3=Poncho
TTITLE4=Country Singer
TTITLE5=Work Song
TTITLE6=Son Of America
TTITLE7=Livin' The Good Life
TTITLE8=For The Sake Of The Song
TTITLE9=Wings Of My Victory
EXTD=
EXTT0=
EXTT1=
EXTT2=
EXTT3=
EXTT4=
EXTT5=
EXTT6=
EXTT7=
EXTT8=
EXTT9=
PLAYORDER=
